<?xml version="1.0" encoding="UTF-8"?><svg id="Layer_2" xmlns="http://www.w3.org/2000/svg" xmlns:xlink="http://www.w3.org/1999/xlink" viewBox="0 0 360.16 300.09"><defs><style>.cls-1{fill:url(#linear-gradient);}.cls-1,.cls-2{stroke-width:0px;}.cls-2{fill:url(#linear-gradient-2);}</style><linearGradient id="linear-gradient" x1="48.66" y1="349.12" x2="328.66" y2="103.79" gradientUnits="userSpaceOnUse"><stop offset="0" stop-color="#f2f2f2"/><stop offset=".18" stop-color="#ededed"/><stop offset=".37" stop-color="#e1e1e1"/><stop offset=".56" stop-color="#ccc"/><stop offset=".76" stop-color="#afafaf"/><stop offset=".95" stop-color="#898989"/><stop offset="1" stop-color="gray"/></linearGradient><linearGradient id="linear-gradient-2" x1="284.22" y1="-31.12" x2="34.44" y2="212.43" xlink:href="#linear-gradient"/></defs><g id="Layer_1-2"><path class="cls-1" d="m0,276.37c7.01-.45,12.57-.81,18.14-1.15,38.17-2.34,73.77-12.91,105.61-34.36,25.58-17.22,43.58-40.79,55.11-69.35,7.72-19.1,14.17-38.87,23.6-57.09,15.49-29.92,41.36-48.95,72.02-61.83,15.09-6.34,16.25-5.84,25.89,7.3,11.76,16.04,20.47,33.56,25.2,52.82,4.72,19.2,5.69,38.65,2.79,58.41-5.08,34.56-19.92,63.89-45.25,87.83-18.19,17.19-39.34,29.16-63.56,35.96-21.44,6.02-42.99,6.38-64.79,3.25-1.47-.21-2.97-.58-4.32-1.19-1.83-.82-3.52-1.95-5.26-2.95,1.48-1.46,2.73-3.65,4.5-4.23,6.08-1.99,12.26-4.24,18.56-4.89,14.54-1.49,29.42-.73,43.71-3.35,22.88-4.19,43.01-14.93,59.82-31.3,21.59-21.04,35.76-46.45,42.07-75.78,6.57-30.5,1.06-59.64-13.74-86.9-4.58-8.44-10.17-16.41-15.97-24.08-4.38-5.79-5.98-5.65-12.31-2.14-25.29,14-43.55,34.57-54.27,61.18-5.84,14.5-10.08,29.78-13.68,45.03-6.25,26.44-12.78,52.68-26.94,76.26-13.86,23.07-33.48,39.15-59.46,46.56-20.13,5.74-40.75,5.37-61.4,2.91-17.29-2.06-33.71-7.12-49.71-13.75-1.76-.73-3.43-1.69-6.36-3.14Z"/><path class="cls-2" d="m358.63,23.33c-.82-.53-1.72-.97-2.61-1.38-16.52-7.62-33.62-13.16-51.76-15.49-19.3-2.47-38.39-2.62-57.48,1.97-24.25,5.83-43.11,19.33-57.75,39.16-15.55,21.07-22.88,45.51-29.04,70.48-4.13,16.71-7.91,33.58-13.32,49.89-10.25,30.89-29.88,54.55-58.34,70.65-6.35,3.59-8.4,3.55-12.46-2.71-7.33-11.27-14.95-22.53-20.62-34.66-12.25-26.2-14.8-53.77-7.27-81.85,5.99-22.32,16.41-42.52,31.45-60.16,22.77-26.71,52.02-40.81,86.79-43.65,8.61-.7,17.31-.36,25.96-.68,9.17-.35,17.64-2.63,25.53-10.57-2.76-.57-5.29-1.09-7.71-1.58h0C189.82-1,171.46-.07,163.15.69c-.36.09-.73.16-1.1.19-14.58,1.09-28.37,5.22-41.66,10.95-36.11,15.56-61.49,41.84-77.12,77.82-12.18,28.02-16.84,57.06-11.04,87.2,4.93,25.61,16.6,48.33,32.52,68.85,4.7,6.06,8.19,6.67,15.27,3.79,3.39-1.38,6.79-2.74,10.12-4.24,29.02-13.07,53.56-31.71,68.2-60.48,8.95-17.58,15.6-36.37,22.63-54.87,9.46-24.87,23.92-46.23,44.65-62.75,31.61-25.19,68.11-38.55,108.35-41.55,8.39-.63,16.87-.09,26.17-.09-.99-1.44-1.17-1.94-1.52-2.17Z"/></g></svg>